<svg version="1.2" xmlns="http://www.w3.org/2000/svg" viewBox="0 0 172 464" width="172" height="464">
	<path d="m77 7.5c-1.8 2-3.3 3.7-3.4 3.8 0 0.1-0.3 89.7-0.6 199l-0.5 198.8c-45.9-55.2-50.6-60.4-53.5-61.3-2.7-0.8-4.3-0.7-7.3 0.6-2 0.9-4.4 2.6-5.2 3.8-0.8 1.3-1.8 3.9-2.1 5.8-0.4 2.7 0 4.3 1.8 7 1.3 1.9 16.7 20.8 34.2 42 17.5 21.2 33.7 40.4 36 42.8 3.6 3.7 4.6 4.2 8.6 4.3 4.1 0 4.9-0.5 9-4.8 2.5-2.6 19.1-22.5 37-44 20.4-24.6 33.1-40.8 34-43.3 1.4-3.8 1.4-4.3-0.5-7.8-1.3-2.3-3.5-4.4-6-5.6-3.3-1.5-4.6-1.7-7.5-0.8-2.9 0.9-7.8 6.2-28.5 31.2l-25 30.1c-0.9-340.8-1.3-397.2-2.1-398.6-0.6-1.1-2.4-3-4-4.3-2-1.6-4.2-2.3-7.1-2.2-3.4 0-4.6 0.6-7.3 3.5z"/>
</svg>